<svg width="60" height="36" viewBox="0 0 60 36" fill="none" xmlns="http://www.w3.org/2000/svg">
<g clip-path="url(#clip0_737_4438)">
<path d="M17.1037 12.7695C17.1037 13.493 17.1819 14.0797 17.3188 14.5099C17.4752 14.9401 17.6708 15.4094 17.9445 15.9178C18.0423 16.0743 18.0814 16.2307 18.0814 16.3676C18.0814 16.5632 17.9641 16.7587 17.7099 16.9543L16.4779 17.7756C16.3019 17.8929 16.1259 17.9516 15.9695 17.9516C15.7739 17.9516 15.5784 17.8538 15.3828 17.6778C15.109 17.3845 14.8744 17.0716 14.6788 16.7587C14.4833 16.4263 14.2877 16.0547 14.0726 15.605C12.5473 17.404 10.6309 18.3036 8.32343 18.3036C6.6808 18.3036 5.37061 17.8342 4.41241 16.8956C3.45421 15.957 2.96533 14.7054 2.96533 13.141C2.96533 11.4788 3.55198 10.1295 4.74484 9.11267C5.93771 8.09581 7.52167 7.58738 9.53584 7.58738C10.2007 7.58738 10.8851 7.64604 11.6087 7.74382C12.3322 7.84159 13.0753 7.99803 13.8575 8.17403V6.74651C13.8575 5.26032 13.5446 4.2239 12.9384 3.61769C12.3127 3.01148 11.2567 2.71816 9.75095 2.71816C9.06652 2.71816 8.36254 2.79638 7.639 2.97237C6.91546 3.14837 6.21148 3.36348 5.52705 3.63725C5.21417 3.77413 4.97951 3.85235 4.84262 3.89146C4.70573 3.93057 4.60796 3.95013 4.52974 3.95013C4.25597 3.95013 4.11908 3.75458 4.11908 3.34392V2.38572C4.11908 2.07284 4.15819 1.83818 4.25597 1.70129C4.35374 1.56441 4.52974 1.42752 4.80351 1.29064C5.48794 0.938644 6.30925 0.645318 7.26745 0.410657C8.22565 0.156441 9.24251 0.0391102 10.318 0.0391102C12.6451 0.0391102 14.3464 0.567097 15.4415 1.62307C16.517 2.67905 17.0645 4.28257 17.0645 6.43363V12.7695H17.1037ZM9.16429 15.7418C9.80961 15.7418 10.4745 15.6245 11.1785 15.3899C11.8825 15.1552 12.5082 14.725 13.0362 14.1383C13.3491 13.7668 13.5837 13.3561 13.7011 12.8868C13.8184 12.4175 13.8966 11.8504 13.8966 11.1855V10.3642C13.3295 10.2273 12.7233 10.11 12.0976 10.0318C11.4718 9.95354 10.8656 9.91443 10.2594 9.91443C8.94919 9.91443 7.99099 10.1686 7.34567 10.6966C6.70035 11.2246 6.38747 11.9677 6.38747 12.9455C6.38747 13.8646 6.62213 14.549 7.11101 15.0183C7.58033 15.5072 8.26476 15.7418 9.16429 15.7418ZM24.867 17.8538C24.515 17.8538 24.2804 17.7951 24.1239 17.6582C23.9675 17.5409 23.8306 17.2671 23.7133 16.8956L19.1178 1.77951C19.0005 1.38841 18.9418 1.1342 18.9418 0.99731C18.9418 0.684428 19.0983 0.508432 19.4112 0.508432H21.3276C21.6991 0.508432 21.9533 0.567098 22.0902 0.703983C22.2466 0.821314 22.364 1.09509 22.4813 1.46663L25.7666 14.4121L28.8172 1.46663C28.9149 1.07553 29.0323 0.821314 29.1887 0.703983C29.3451 0.586653 29.6189 0.508432 29.9709 0.508432H31.5353C31.9069 0.508432 32.1611 0.567098 32.3175 0.703983C32.474 0.821314 32.6108 1.09509 32.6891 1.46663L35.7788 14.5685L39.1618 1.46663C39.2791 1.07553 39.416 0.821314 39.5529 0.703983C39.7093 0.586653 39.9636 0.508432 40.3155 0.508432H42.1342C42.447 0.508432 42.623 0.664873 42.623 0.99731C42.623 1.09509 42.6035 1.19286 42.5839 1.31019C42.5644 1.42752 42.5253 1.58396 42.447 1.79907L37.7343 16.9152C37.6169 17.3063 37.4801 17.5605 37.3236 17.6778C37.1672 17.7951 36.913 17.8734 36.5805 17.8734H34.8988C34.5272 17.8734 34.273 17.8147 34.1166 17.6778C33.9601 17.5409 33.8233 17.2867 33.745 16.8956L30.714 4.28256L27.7025 16.876C27.6047 17.2671 27.4874 17.5214 27.331 17.6582C27.1745 17.7951 26.9008 17.8538 26.5488 17.8538H24.867ZM49.9953 18.3818C48.9785 18.3818 47.9616 18.2645 46.9838 18.0298C46.0061 17.7951 45.2434 17.5409 44.735 17.2476C44.4221 17.0716 44.207 16.876 44.1288 16.7C44.0506 16.5241 44.0115 16.3285 44.0115 16.1525V15.1552C44.0115 14.7445 44.1679 14.549 44.4612 14.549C44.5786 14.549 44.6959 14.5685 44.8132 14.6077C44.9305 14.6468 45.1065 14.725 45.3021 14.8032C45.967 15.0965 46.6905 15.3312 47.4532 15.4876C48.2354 15.6441 48.998 15.7223 49.7802 15.7223C51.0122 15.7223 51.9704 15.5072 52.6353 15.077C53.3001 14.6468 53.6521 14.021 53.6521 13.2192C53.6521 12.6717 53.4761 12.2219 53.1241 11.8504C52.7721 11.4788 52.1073 11.1464 51.1491 10.8335L48.3136 9.95354C46.8861 9.50377 45.8301 8.8389 45.1848 7.95892C44.5394 7.0985 44.207 6.1403 44.207 5.12343C44.207 4.30212 44.383 3.57858 44.735 2.95282C45.087 2.32706 45.5563 1.77951 46.143 1.3493C46.7296 0.899534 47.3945 0.567098 48.1767 0.332437C48.9589 0.0977754 49.7802 0 50.6406 0C51.0708 0 51.5206 0.0195551 51.9508 0.0782204C52.4006 0.136886 52.8112 0.215106 53.2219 0.293326C53.613 0.391102 53.9845 0.488877 54.3365 0.606208C54.6885 0.723538 54.9623 0.840869 55.1579 0.958199C55.4316 1.11464 55.6272 1.27108 55.7445 1.44708C55.8618 1.60352 55.9205 1.81862 55.9205 2.09239V3.01148C55.9205 3.42214 55.7641 3.63725 55.4707 3.63725C55.3143 3.63725 55.0601 3.55903 54.7276 3.40259C53.613 2.89415 52.3615 2.63994 50.9731 2.63994C49.8584 2.63994 48.9784 2.81593 48.3722 3.18748C47.766 3.55903 47.4532 4.12612 47.4532 4.92788C47.4532 5.47543 47.6487 5.94475 48.0398 6.31629C48.4309 6.68784 49.1544 7.05939 50.1909 7.39182L52.9677 8.2718C54.3756 8.72157 55.3925 9.34733 55.9987 10.1491C56.6049 10.9509 56.8983 11.8699 56.8983 12.8868C56.8983 13.7277 56.7223 14.4903 56.3898 15.1552C56.0378 15.8201 55.5685 16.4067 54.9623 16.876C54.3561 17.3649 53.6326 17.7169 52.7917 17.9711C51.9117 18.2449 50.9926 18.3818 49.9953 18.3818Z" fill="#DBF3E6"/>
<path fill-rule="evenodd" clip-rule="evenodd" d="M53.691 27.8855C47.2574 32.6374 37.9101 35.1601 29.873 35.1601C18.6093 35.1601 8.46022 30.9948 0.794656 24.0723C0.18845 23.5247 0.735991 22.7816 1.45953 23.2119C9.75085 28.0224 19.9781 30.9361 30.5574 30.9361C37.695 30.9361 45.5365 29.45 52.7523 26.3994C53.8279 25.9105 54.7469 27.1033 53.691 27.8855Z" fill="#DBF3E6"/>
<path fill-rule="evenodd" clip-rule="evenodd" d="M56.3702 24.8349C55.5489 23.779 50.934 24.3265 48.8416 24.5807C48.2159 24.6589 48.1181 24.1114 48.6852 23.7007C52.3615 21.1195 58.4038 21.8626 59.1078 22.723C59.8118 23.603 58.9123 29.6455 55.4706 32.5396C54.9427 32.9894 54.4343 32.7547 54.6689 32.1681C55.4511 30.2321 57.1915 25.8713 56.3702 24.8349Z" fill="#DBF3E6"/>
</g>
<defs>
<clipPath id="clip0_737_4438">
<rect width="60" height="35.16" fill="white"/>
</clipPath>
</defs>
</svg>
