<svg width="100" height="77" viewBox="0 0 100 77" fill="none" xmlns="http://www.w3.org/2000/svg">
<path d="M61.2499 26.2502C60.4864 27.0291 60.0588 28.0762 60.0588 29.1669C60.0588 30.2575 60.4864 31.3047 61.2499 32.0835L67.9165 38.7502C68.6954 39.5136 69.7426 39.9413 70.8332 39.9413C71.9239 39.9413 72.971 39.5136 73.7499 38.7502L89.4582 23.0419C91.5534 27.6718 92.1877 32.8303 91.2768 37.83C90.3658 42.8296 87.9529 47.4329 84.3594 51.0264C80.7659 54.6198 76.1626 57.0328 71.163 57.9438C66.1634 58.8547 61.0048 58.2203 56.3749 56.1252L27.5832 84.9169C25.9256 86.5745 23.6774 87.5057 21.3332 87.5057C18.989 87.5057 16.7408 86.5745 15.0832 84.9169C13.4256 83.2593 12.4944 81.0111 12.4944 78.6669C12.4944 76.3227 13.4256 74.0745 15.0832 72.4169L43.8749 43.6252C41.7797 38.9952 41.1454 33.8367 42.0563 28.8371C42.9673 23.8375 45.3802 19.2342 48.9737 15.6407C52.5672 12.0472 57.1705 9.63424 62.1701 8.72329C67.1697 7.81235 72.3283 8.44672 76.9582 10.5419L61.2916 26.2085L61.2499 26.2502Z" stroke="#27AE60" stroke-linecap="round" stroke-linejoin="round"/>
</svg>
