<svg width="60" height="54" viewBox="0 0 60 54" fill="none" xmlns="http://www.w3.org/2000/svg">
<path d="M39.3749 27C36.9655 27 34.6358 26.0318 32.8124 24.2747C31.0393 22.5608 29.9565 20.2753 29.7655 17.8411C29.5616 15.2445 30.4417 12.8566 32.2428 11.1164C34.044 9.37617 36.5624 8.4375 39.3749 8.4375C42.1675 8.4375 44.6928 9.39305 46.4882 11.1291C48.3011 12.882 49.1835 15.2655 48.9796 17.84C48.7839 20.2774 47.7022 22.5619 45.9327 24.2736C44.1139 26.0318 41.7854 27 39.3749 27ZM54.8237 45.5625H23.9272C23.4305 45.5649 22.9397 45.4647 22.4928 45.2696C22.0458 45.0745 21.6546 44.7897 21.3491 44.4371C21.0251 44.055 20.8013 43.6117 20.6946 43.1407C20.5878 42.6697 20.6008 42.183 20.7327 41.7171C21.7194 38.1512 24.1639 35.1939 27.8014 33.1657C31.03 31.3664 35.1397 30.375 39.3749 30.375C43.6932 30.375 47.6952 31.3242 50.9425 33.1225C54.5882 35.1401 57.0362 38.1143 58.0182 41.7234C58.1485 42.1897 58.1601 42.6763 58.0521 43.1471C57.9442 43.6179 57.7195 44.0607 57.3948 44.4424C57.0896 44.7933 56.6993 45.0767 56.2536 45.2709C55.808 45.465 55.3188 45.5648 54.8237 45.5625ZM17.2264 27.4219C13.1026 27.4219 9.47682 23.9709 9.14049 19.73C8.97409 17.5574 9.72643 15.5482 11.2499 14.0748C12.7569 12.6162 14.8827 11.8125 17.2264 11.8125C19.5702 11.8125 21.6796 12.6204 23.1948 14.0875C24.7299 15.5725 25.4799 17.5774 25.3042 19.7321C24.9678 23.972 21.3432 27.4219 17.2264 27.4219ZM24.921 30.7389C22.8596 29.8318 20.1842 29.3783 17.2276 29.3783C13.7753 29.3783 10.4225 30.1883 7.78581 31.6586C4.79635 33.3281 2.78541 35.7592 1.9733 38.6944C1.85446 39.1166 1.84322 39.5575 1.94042 39.9841C2.03763 40.4108 2.24076 40.8121 2.53463 41.1581C2.81348 41.4803 3.17071 41.7406 3.57885 41.9191C3.98699 42.0975 4.43518 42.1894 4.88893 42.1875H17.8967C18.1163 42.1875 18.3289 42.1181 18.4974 41.9915C18.666 41.8648 18.7798 41.689 18.819 41.4946C18.8319 41.4281 18.8483 41.3617 18.8671 41.2963C19.8608 37.704 22.1893 34.6686 25.63 32.4559C25.7565 32.3738 25.8583 32.2646 25.9261 32.1381C25.9939 32.0117 26.0255 31.872 26.0182 31.7318C26.0109 31.5915 25.9648 31.4552 25.8841 31.335C25.8034 31.2148 25.6907 31.1147 25.5561 31.0437C25.3721 30.9466 25.1612 30.8443 24.921 30.7389Z" fill="#DBF3E6"/>
</svg>
