<svg width="86" height="86" viewBox="0 0 86 86" fill="none" xmlns="http://www.w3.org/2000/svg">
<rect width="80" height="80" rx="2" fill="#FBE8D7"/>
<path d="M29.9997 36.6666H26.6663C25.7823 36.6666 24.9344 36.3155 24.3093 35.6903C23.6842 35.0652 23.333 34.2174 23.333 33.3333V26.6666C23.333 25.7826 23.6842 24.9347 24.3093 24.3096C24.9344 23.6845 25.7823 23.3333 26.6663 23.3333H53.333C54.2171 23.3333 55.0649 23.6845 55.69 24.3096C56.3152 24.9347 56.6663 25.7826 56.6663 26.6666V33.3333C56.6663 34.2174 56.3152 35.0652 55.69 35.6903C55.0649 36.3155 54.2171 36.6666 53.333 36.6666H49.9997" stroke="#F2994A" stroke-linecap="round" stroke-linejoin="round"/>
<path d="M29.9997 43.3333H26.6663C25.7823 43.3333 24.9344 43.6845 24.3093 44.3096C23.6842 44.9347 23.333 45.7826 23.333 46.6666V53.3333C23.333 54.2174 23.6842 55.0652 24.3093 55.6903C24.9344 56.3155 25.7823 56.6666 26.6663 56.6666H53.333C54.2171 56.6666 55.0649 56.3155 55.69 55.6903C56.3152 55.0652 56.6663 54.2174 56.6663 53.3333V46.6666C56.6663 45.7826 56.3152 44.9347 55.69 44.3096C55.0649 43.6845 54.2171 43.3333 53.333 43.3333H49.9997" stroke="#F2994A" stroke-linecap="round" stroke-linejoin="round"/>
<path d="M30 30H30.0162" stroke="#F2994A" stroke-linecap="round" stroke-linejoin="round"/>
<path d="M30 50H30.0162" stroke="#F2994A" stroke-linecap="round" stroke-linejoin="round"/>
<path d="M41.6667 30L35 40H45L38.3333 50" stroke="#F2994A" stroke-linecap="round" stroke-linejoin="round"/>
<circle cx="70" cy="70" r="15.5" fill="white" stroke="#F2994A"/>
<path d="M70 72C71.1046 72 72 71.1046 72 70C72 68.8954 71.1046 68 70 68C68.8954 68 68 68.8954 68 70C68 71.1046 68.8954 72 70 72Z" stroke="#F2994A" stroke-linecap="round" stroke-linejoin="round"/>
<path d="M74.9337 72C74.8449 72.2011 74.8184 72.4241 74.8577 72.6404C74.8969 72.8566 75 73.0562 75.1537 73.2133L75.1937 73.2533C75.3176 73.3772 75.416 73.5242 75.4831 73.6861C75.5502 73.8479 75.5847 74.0214 75.5847 74.1967C75.5847 74.3719 75.5502 74.5454 75.4831 74.7072C75.416 74.8691 75.3176 75.0162 75.1937 75.14C75.0698 75.264 74.9228 75.3623 74.7609 75.4294C74.599 75.4965 74.4255 75.531 74.2503 75.531C74.0751 75.531 73.9016 75.4965 73.7397 75.4294C73.5779 75.3623 73.4308 75.264 73.307 75.14L73.267 75.1C73.1099 74.9463 72.9103 74.8432 72.6941 74.804C72.4778 74.7648 72.2547 74.7912 72.0537 74.88C71.8565 74.9645 71.6883 75.1048 71.5699 75.2837C71.4514 75.4625 71.3878 75.6721 71.387 75.8867V76C71.387 76.3536 71.2465 76.6927 70.9965 76.9428C70.7464 77.1928 70.4073 77.3333 70.0537 77.3333C69.7 77.3333 69.3609 77.1928 69.1108 76.9428C68.8608 76.6927 68.7203 76.3536 68.7203 76V75.94C68.7152 75.7193 68.6437 75.5053 68.5153 75.3258C68.3869 75.1463 68.2075 75.0095 68.0003 74.9333C67.7992 74.8446 67.5762 74.8181 67.3599 74.8573C67.1437 74.8965 66.9441 74.9996 66.787 75.1533L66.747 75.1933C66.6232 75.3173 66.4761 75.4156 66.3142 75.4827C66.1524 75.5498 65.9789 75.5844 65.8037 75.5844C65.6284 75.5844 65.4549 75.5498 65.2931 75.4827C65.1312 75.4156 64.9842 75.3173 64.8603 75.1933C64.7364 75.0695 64.638 74.9224 64.5709 74.7606C64.5038 74.5987 64.4693 74.4252 64.4693 74.25C64.4693 74.0748 64.5038 73.9013 64.5709 73.7394C64.638 73.5775 64.7364 73.4305 64.8603 73.3067L64.9003 73.2667C65.054 73.1095 65.1571 72.91 65.1963 72.6937C65.2355 72.4775 65.2091 72.2544 65.1203 72.0533C65.0358 71.8561 64.8955 71.688 64.7166 71.5695C64.5378 71.4511 64.3282 71.3875 64.1137 71.3867H64.0003C63.6467 71.3867 63.3076 71.2462 63.0575 70.9961C62.8075 70.7461 62.667 70.4069 62.667 70.0533C62.667 69.6997 62.8075 69.3606 63.0575 69.1105C63.3076 68.8605 63.6467 68.72 64.0003 68.72H64.0603C64.281 68.7148 64.495 68.6434 64.6745 68.515C64.8541 68.3866 64.9908 68.2071 65.067 68C65.1557 67.7989 65.1822 67.5759 65.143 67.3596C65.1038 67.1433 65.0007 66.9438 64.847 66.7867L64.807 66.7467C64.683 66.6228 64.5847 66.4758 64.5176 66.3139C64.4505 66.152 64.4159 65.9785 64.4159 65.8033C64.4159 65.6281 64.4505 65.4546 64.5176 65.2927C64.5847 65.1309 64.683 64.9838 64.807 64.86C64.9308 64.736 65.0779 64.6377 65.2397 64.5706C65.4016 64.5035 65.5751 64.4689 65.7503 64.4689C65.9255 64.4689 66.099 64.5035 66.2609 64.5706C66.4228 64.6377 66.5698 64.736 66.6937 64.86L66.7337 64.9C66.8908 65.0537 67.0903 65.1568 67.3066 65.196C67.5229 65.2352 67.7459 65.2087 67.947 65.12H68.0003C68.1975 65.0355 68.3657 64.8952 68.4841 64.7163C68.6026 64.5374 68.6661 64.3278 68.667 64.1133V64C68.667 63.6464 68.8075 63.3072 69.0575 63.0572C69.3076 62.8071 69.6467 62.6667 70.0003 62.6667C70.3539 62.6667 70.6931 62.8071 70.9431 63.0572C71.1932 63.3072 71.3337 63.6464 71.3337 64V64.06C71.3345 64.2745 71.3981 64.4841 71.5165 64.663C71.635 64.8418 71.8031 64.9821 72.0003 65.0667C72.2014 65.1554 72.4245 65.1819 72.6407 65.1427C72.857 65.1034 73.0565 65.0003 73.2137 64.8467L73.2537 64.8067C73.3775 64.6827 73.5245 64.5843 73.6864 64.5172C73.8483 64.4501 74.0218 64.4156 74.197 64.4156C74.3722 64.4156 74.5457 64.4501 74.7076 64.5172C74.8694 64.5843 75.0165 64.6827 75.1403 64.8067C75.2643 64.9305 75.3626 65.0775 75.4297 65.2394C75.4968 65.4013 75.5314 65.5748 75.5314 65.75C75.5314 65.9252 75.4968 66.0987 75.4297 66.2606C75.3626 66.4224 75.2643 66.5695 75.1403 66.6933L75.1003 66.7333C74.9466 66.8904 74.8435 67.09 74.8043 67.3063C74.7651 67.5225 74.7916 67.7456 74.8803 67.9467V68C74.9648 68.1972 75.1052 68.3653 75.284 68.4838C75.4629 68.6022 75.6725 68.6658 75.887 68.6667H76.0003C76.3539 68.6667 76.6931 68.8071 76.9431 69.0572C77.1932 69.3072 77.3337 69.6464 77.3337 70C77.3337 70.3536 77.1932 70.6927 76.9431 70.9428C76.6931 71.1928 76.3539 71.3333 76.0003 71.3333H75.9403C75.7258 71.3342 75.5162 71.3977 75.3373 71.5162C75.1585 71.6346 75.0182 71.8028 74.9337 72V72Z" stroke="#F2994A" stroke-linecap="round" stroke-linejoin="round"/>
</svg>
