<svg width="100" height="77" viewBox="0 0 100 77" fill="none" xmlns="http://www.w3.org/2000/svg">
<path d="M66.6666 66.6667L49.9999 50L33.3333 66.6667" stroke="#E0E0E0" stroke-linecap="round" stroke-linejoin="round"/>
<path d="M50 50V87.5" stroke="#E0E0E0" stroke-linecap="round" stroke-linejoin="round"/>
<path d="M12.5001 67.9167C9.16359 64.1411 6.72642 59.6583 5.3718 54.8053C4.01718 49.9522 3.78037 44.8552 4.67916 39.8975C5.57795 34.9397 7.58896 30.2503 10.561 26.1816C13.533 22.1129 17.3888 18.771 21.8383 16.407C26.2879 14.0429 31.2154 12.7184 36.2506 12.5329C41.2857 12.3473 46.2974 13.3057 50.9088 15.3359C55.5203 17.3661 59.6115 20.4152 62.8749 24.2542C66.1382 28.0931 68.4889 32.6219 69.7501 37.5H75.0001C79.6287 37.5031 84.1245 39.0474 87.7779 41.8894C88.9682 42.8153 90.0469 43.8617 91 45.007" stroke="#E0E0E0" stroke-linecap="round" stroke-linejoin="round"/>
<path d="M66.6666 66.6667L49.9999 50L33.3333 66.6667" stroke="#E0E0E0" stroke-linecap="round" stroke-linejoin="round"/>
</svg>
