<svg width="55" height="40" viewBox="0 0 60 49" fill="none" xmlns="http://www.w3.org/2000/svg">
<g clip-path="url(#clip0_737_4475)">
<path d="M38.0716 13.2967H39.9025L45.1186 8.08065L45.3751 5.86747C35.6697 -2.69859 20.8539 -1.77559 12.2879 7.92975C9.9062 10.6258 8.1784 13.8324 7.23779 17.3031C7.81876 17.0642 8.46259 17.0265 9.06871 17.1925L19.4984 15.4722C19.4984 15.4722 20.029 14.5945 20.3032 14.6498C24.9433 9.55444 32.7524 8.9609 38.1093 13.2967H38.0716Z" fill="#DBF3E6"/>
<path d="M52.5479 17.3031C51.3483 12.8893 48.8886 8.92066 45.4657 5.88507L38.1472 13.2037C41.2381 15.7287 42.9986 19.5339 42.9231 23.5252V24.8254C46.522 24.8254 49.4369 27.7428 49.4369 31.3392C49.4369 34.9382 46.5195 37.8531 42.9231 37.8531H29.893L28.5928 39.1709V46.985L29.893 48.2852H42.9231C50.3926 48.3431 57.0195 43.5017 59.2377 36.3692C61.4509 29.2342 58.7348 21.488 52.5479 17.3031Z" fill="#DBF3E6"/>
<path d="M16.8452 48.2122H29.8753V37.7826H16.8452C15.9172 37.7826 14.9992 37.5839 14.1542 37.1966L12.3233 37.7625L7.07198 42.9785L6.61426 44.8095C9.5593 47.0327 13.1532 48.2273 16.8452 48.2122Z" fill="#DBF3E6"/>
<path d="M16.8452 14.3757C9.60702 14.4185 3.19632 19.0536 0.887563 25.9119C-1.4212 32.7703 0.880018 40.3404 6.6167 44.7516L14.1742 37.1941C10.8947 35.7128 9.43852 31.8548 10.9198 28.5753C12.4012 25.2957 16.2592 23.8396 19.5387 25.3209C20.9823 25.9748 22.1392 27.1317 22.7931 28.5753L30.3506 21.0178C27.134 16.8152 22.1367 14.3581 16.8452 14.3757Z" fill="#DBF3E6"/>
</g>
<defs>
<clipPath id="clip0_737_4475">
<rect width="60" height="48.2852" fill="white"/>
</clipPath>
</defs>
</svg>
