<svg width="20" height="17" viewBox="0 0 20 17" fill="none" xmlns="http://www.w3.org/2000/svg">
<g clip-path="url(#clip0_737_4552)">
<path d="M12.6906 4.43224H13.3009L15.0396 2.69354L15.1251 1.95581C11.8899 -0.899551 6.95133 -0.591883 4.09597 2.64324C3.30207 3.54193 2.72613 4.6108 2.4126 5.7677C2.60625 5.68806 2.82087 5.67548 3.0229 5.73081L6.49947 5.15739C6.49947 5.15739 6.67636 4.86482 6.76773 4.88326C8.31446 3.1848 10.9175 2.98695 12.7031 4.43224H12.6906Z" fill="#EA4335"/>
<path d="M17.5162 5.76769C17.1164 4.29642 16.2965 2.97353 15.1555 1.96167L12.716 4.40121C13.7463 5.24289 14.3331 6.51128 14.308 7.84171V8.27513C15.5076 8.27513 16.4792 9.24759 16.4792 10.4464C16.4792 11.6461 15.5068 12.6177 14.308 12.6177H9.96466L9.53125 13.057V15.6616L9.96466 16.0951H14.308C16.7978 16.1143 19.0068 14.5006 19.7462 12.1231C20.4839 9.74472 19.5785 7.16267 17.5162 5.76769Z" fill="#4285F4"/>
<path d="M5.61539 16.0707H9.95875V12.5941H5.61539C5.30604 12.5941 5.00005 12.5279 4.71838 12.3988L4.10808 12.5874L2.35765 14.3261L2.20508 14.9364C3.18676 15.6775 4.38472 16.0757 5.61539 16.0707Z" fill="#34A853"/>
<path d="M5.61522 4.7919C3.20251 4.80615 1.0656 6.35118 0.296018 8.63729C-0.47357 10.9234 0.293502 13.4468 2.20573 14.9172L4.72492 12.398C3.63173 11.9042 3.14634 10.6182 3.64012 9.52507C4.13389 8.4319 5.41989 7.94651 6.51308 8.44028C6.99428 8.65825 7.37991 9.04388 7.59787 9.52507L10.1171 7.00591C9.04483 5.60508 7.37907 4.78603 5.61522 4.7919Z" fill="#FBBC05"/>
</g>
<defs>
<clipPath id="clip0_737_4552">
<rect width="20" height="16.0951" fill="white"/>
</clipPath>
</defs>
</svg>
