<svg width="20" height="20" viewBox="0 0 20 20" fill="none" xmlns="http://www.w3.org/2000/svg">
<path d="M18.3332 10H1.6665" stroke="#27AE60" stroke-linecap="round" stroke-linejoin="round"/>
<path d="M4.5415 4.25831L1.6665 9.99998V15C1.6665 15.442 1.8421 15.8659 2.15466 16.1785C2.46722 16.4911 2.89114 16.6666 3.33317 16.6666H16.6665C17.1085 16.6666 17.5325 16.4911 17.845 16.1785C18.1576 15.8659 18.3332 15.442 18.3332 15V9.99998L15.4582 4.25831C15.3202 3.98064 15.1075 3.74696 14.844 3.58355C14.5805 3.42014 14.2766 3.33348 13.9665 3.33331H6.03317C5.7231 3.33348 5.41922 3.42014 5.15571 3.58355C4.89219 3.74696 4.67949 3.98064 4.5415 4.25831V4.25831Z" stroke="#27AE60" stroke-linecap="round" stroke-linejoin="round"/>
<path d="M5 13.3333H5.00875" stroke="#27AE60" stroke-linecap="round" stroke-linejoin="round"/>
<path d="M8.3335 13.3333H8.34225" stroke="#27AE60" stroke-linecap="round" stroke-linejoin="round"/>
</svg>
