<svg width="19" height="19" viewBox="0 0 19 19" fill="none" xmlns="http://www.w3.org/2000/svg">
<path d="M2.63 4.26C3.53022 4.26 4.26 3.53022 4.26 2.63C4.26 1.72978 3.53022 1 2.63 1C1.72978 1 1 1.72978 1 2.63C1 3.53022 1.72978 4.26 2.63 4.26Z" stroke="#828282" stroke-miterlimit="10"/>
<path d="M9.55993 4.26C10.4602 4.26 11.1899 3.53022 11.1899 2.63C11.1899 1.72978 10.4602 1 9.55993 1C8.65971 1 7.92993 1.72978 7.92993 2.63C7.92993 3.53022 8.65971 4.26 9.55993 4.26Z" stroke="#828282" stroke-miterlimit="10"/>
<path d="M16.5001 4.26C17.4003 4.26 18.1301 3.53022 18.1301 2.63C18.1301 1.72978 17.4003 1 16.5001 1C15.5999 1 14.8701 1.72978 14.8701 2.63C14.8701 3.53022 15.5999 4.26 16.5001 4.26Z" stroke="#828282" stroke-miterlimit="10"/>
<path d="M4.25 2.63H7.94" stroke="#828282" stroke-miterlimit="10"/>
<path d="M11.1899 2.63H14.8799" stroke="#828282" stroke-miterlimit="10"/>
<path d="M2.63 11.28C3.53022 11.28 4.26 10.5502 4.26 9.65002C4.26 8.7498 3.53022 8.02002 2.63 8.02002C1.72978 8.02002 1 8.7498 1 9.65002C1 10.5502 1.72978 11.28 2.63 11.28Z" stroke="#828282" stroke-miterlimit="10"/>
<path d="M9.55993 11.28C10.4602 11.28 11.1899 10.5502 11.1899 9.65002C11.1899 8.7498 10.4602 8.02002 9.55993 8.02002C8.65971 8.02002 7.92993 8.7498 7.92993 9.65002C7.92993 10.5502 8.65971 11.28 9.55993 11.28Z" stroke="#828282" stroke-miterlimit="10"/>
<path d="M16.5001 11.28C17.4003 11.28 18.1301 10.5502 18.1301 9.65002C18.1301 8.7498 17.4003 8.02002 16.5001 8.02002C15.5999 8.02002 14.8701 8.7498 14.8701 9.65002C14.8701 10.5502 15.5999 11.28 16.5001 11.28Z" stroke="#828282" stroke-miterlimit="10"/>
<path d="M4.25 9.65002H7.94" stroke="#828282" stroke-miterlimit="10"/>
<path d="M11.1899 9.65002H14.8799" stroke="#828282" stroke-miterlimit="10"/>
<path d="M2.63 18.3C3.53022 18.3 4.26 17.5703 4.26 16.67C4.26 15.7698 3.53022 15.04 2.63 15.04C1.72978 15.04 1 15.7698 1 16.67C1 17.5703 1.72978 18.3 2.63 18.3Z" stroke="#828282" stroke-miterlimit="10"/>
<path d="M9.55993 18.3C10.4602 18.3 11.1899 17.5703 11.1899 16.67C11.1899 15.7698 10.4602 15.04 9.55993 15.04C8.65971 15.04 7.92993 15.7698 7.92993 16.67C7.92993 17.5703 8.65971 18.3 9.55993 18.3Z" stroke="#828282" stroke-miterlimit="10"/>
<path d="M16.5001 18.3C17.4003 18.3 18.1301 17.5703 18.1301 16.67C18.1301 15.7698 17.4003 15.04 16.5001 15.04C15.5999 15.04 14.8701 15.7698 14.8701 16.67C14.8701 17.5703 15.5999 18.3 16.5001 18.3Z" stroke="#828282" stroke-miterlimit="10"/>
<path d="M4.25 16.67H7.94" stroke="#828282" stroke-miterlimit="10"/>
<path d="M11.1899 16.67H14.8799" stroke="#828282" stroke-miterlimit="10"/>
<path d="M9.55993 12.92C9.7698 12.92 9.93993 12.7499 9.93993 12.54C9.93993 12.3302 9.7698 12.16 9.55993 12.16C9.35006 12.16 9.17993 12.3302 9.17993 12.54C9.17993 12.7499 9.35006 12.92 9.55993 12.92Z" fill="#828282"/>
<path d="M9.55993 14.15C9.7698 14.15 9.93993 13.9799 9.93993 13.77C9.93993 13.5601 9.7698 13.39 9.55993 13.39C9.35006 13.39 9.17993 13.5601 9.17993 13.77C9.17993 13.9799 9.35006 14.15 9.55993 14.15Z" fill="#828282"/>
<path d="M6.5299 13.97C6.73977 13.97 6.9099 13.7998 6.9099 13.59C6.9099 13.3801 6.73977 13.21 6.5299 13.21C6.32003 13.21 6.1499 13.3801 6.1499 13.59C6.1499 13.7998 6.32003 13.97 6.5299 13.97Z" fill="#828282"/>
<path d="M5.66003 13.1C5.8699 13.1 6.04003 12.9298 6.04003 12.72C6.04003 12.5101 5.8699 12.34 5.66003 12.34C5.45016 12.34 5.28003 12.5101 5.28003 12.72C5.28003 12.9298 5.45016 13.1 5.66003 13.1Z" fill="#828282"/>
<path d="M4.79992 12.24C5.00979 12.24 5.17992 12.0698 5.17992 11.86C5.17992 11.6501 5.00979 11.48 4.79992 11.48C4.59005 11.48 4.41992 11.6501 4.41992 11.86C4.41992 12.0698 4.59005 12.24 4.79992 12.24Z" fill="#828282"/>
<path d="M7.39001 14.8299C7.59988 14.8299 7.77001 14.6598 7.77001 14.4499C7.77001 14.2401 7.59988 14.0699 7.39001 14.0699C7.18014 14.0699 7.01001 14.2401 7.01001 14.4499C7.01001 14.6598 7.18014 14.8299 7.39001 14.8299Z" fill="#828282"/>
<path d="M12.7001 6.94994C12.9099 6.94994 13.0801 6.77981 13.0801 6.56994C13.0801 6.36007 12.9099 6.18994 12.7001 6.18994C12.4902 6.18994 12.3201 6.36007 12.3201 6.56994C12.3201 6.77981 12.4902 6.94994 12.7001 6.94994Z" fill="#828282"/>
<path d="M13.5599 6.07995C13.7698 6.07995 13.9399 5.90981 13.9399 5.69995C13.9399 5.49008 13.7698 5.31995 13.5599 5.31995C13.3501 5.31995 13.1799 5.49008 13.1799 5.69995C13.1799 5.90981 13.3501 6.07995 13.5599 6.07995Z" fill="#828282"/>
<path d="M14.43 5.21996C14.6399 5.21996 14.81 5.04983 14.81 4.83996C14.81 4.63009 14.6399 4.45996 14.43 4.45996C14.2202 4.45996 14.05 4.63009 14.05 4.83996C14.05 5.04983 14.2202 5.21996 14.43 5.21996Z" fill="#828282"/>
<path d="M11.83 7.81005C12.0398 7.81005 12.21 7.63992 12.21 7.43005C12.21 7.22018 12.0398 7.05005 11.83 7.05005C11.6201 7.05005 11.45 7.22018 11.45 7.43005C11.45 7.63992 11.6201 7.81005 11.83 7.81005Z" fill="#828282"/>
</svg>
