<svg width="12" height="12" viewBox="0 0 12 12" fill="none" xmlns="http://www.w3.org/2000/svg">
<path d="M11 6H1" stroke="#27AE60" stroke-linecap="round" stroke-linejoin="round"/>
<path d="M2.725 2.555L1 6V9C1 9.26522 1.10536 9.51957 1.29289 9.70711C1.48043 9.89464 1.73478 10 2 10H10C10.2652 10 10.5196 9.89464 10.7071 9.70711C10.8946 9.51957 11 9.26522 11 9V6L9.275 2.555C9.19221 2.38839 9.06459 2.24819 8.90648 2.15014C8.74837 2.05209 8.56604 2.0001 8.38 2H3.62C3.43396 2.0001 3.25163 2.05209 3.09352 2.15014C2.93541 2.24819 2.80779 2.38839 2.725 2.555V2.555Z" stroke="#27AE60" stroke-linecap="round" stroke-linejoin="round"/>
<path d="M3 8H3.00525" stroke="#27AE60" stroke-linecap="round" stroke-linejoin="round"/>
<path d="M5 8H5.00525" stroke="#27AE60" stroke-linecap="round" stroke-linejoin="round"/>
</svg>
