<svg width="25" height="25" viewBox="0 0 25 25" fill="none" xmlns="http://www.w3.org/2000/svg">
<g clip-path="url(#clip0_67_2495)">
<path d="M23.491 6.19946V10.1995H19.491" stroke="#828282" stroke-linecap="round" stroke-linejoin="round"/>
<path d="M1.49103 18.1995V14.1995H5.49103" stroke="#828282" stroke-linecap="round" stroke-linejoin="round"/>
<path d="M4.00103 9.19948C4.5082 7.76626 5.37016 6.48488 6.50649 5.4749C7.64283 4.46491 9.01649 3.75924 10.4993 3.42374C11.9821 3.08823 13.5258 3.13382 14.9862 3.55625C16.4467 3.97868 17.7763 4.76419 18.851 5.83948L23.491 10.1995M1.49103 14.1995L6.13103 18.5595C7.20578 19.6348 8.5354 20.4203 9.99584 20.8427C11.4563 21.2651 12.9999 21.3107 14.4827 20.9752C15.9656 20.6397 17.3392 19.934 18.4756 18.9241C19.6119 17.9141 20.4739 16.6327 20.981 15.1995" stroke="#828282" stroke-linecap="round" stroke-linejoin="round"/>
<path d="M11.9918 7V17.8187" stroke="#828282" stroke-linecap="round" stroke-linejoin="round"/>
<path d="M14.4506 8.96704H10.7624C10.3059 8.96704 9.8681 9.14838 9.54532 9.47116C9.22253 9.79394 9.0412 10.2317 9.0412 10.6882C9.0412 11.1447 9.22253 11.5825 9.54532 11.9052C9.8681 12.228 10.3059 12.4094 10.7624 12.4094H13.2212C13.6776 12.4094 14.1154 12.5907 14.4382 12.9135C14.761 13.2363 14.9423 13.674 14.9423 14.1305C14.9423 14.587 14.761 15.0248 14.4382 15.3476C14.1154 15.6703 13.6776 15.8517 13.2212 15.8517H9.0412" stroke="#828282" stroke-linecap="round" stroke-linejoin="round"/>
</g>
<defs>
<clipPath id="clip0_67_2495">
<rect width="24" height="24" fill="white" transform="translate(0.491028 0.199463)"/>
</clipPath>
</defs>
</svg>
