<svg width="16" height="16" viewBox="0 0 16 16" fill="none" xmlns="http://www.w3.org/2000/svg">
<path d="M15.3337 4V6.66667H12.667" stroke="#27AE60" stroke-linecap="round" stroke-linejoin="round"/>
<path d="M0.666992 12V9.33334H3.33366" stroke="#27AE60" stroke-linecap="round" stroke-linejoin="round"/>
<path d="M2.34033 6.00001C2.67844 5.04453 3.25308 4.19028 4.01064 3.51695C4.76819 2.84363 5.68397 2.37319 6.67252 2.14952C7.66106 1.92584 8.69016 1.95624 9.66379 2.23786C10.6374 2.51948 11.5238 3.04315 12.2403 3.76001L15.3337 6.66668M0.666992 9.33334L3.76033 12.24C4.47682 12.9569 5.36324 13.4805 6.33686 13.7622C7.31049 14.0438 8.33959 14.0742 9.32813 13.8505C10.3167 13.6268 11.2325 13.1564 11.99 12.4831C12.7476 11.8097 13.3222 10.9555 13.6603 10" stroke="#27AE60" stroke-linecap="round" stroke-linejoin="round"/>
<path d="M7.66699 4.53369V11.7462" stroke="#27AE60" stroke-linecap="round" stroke-linejoin="round"/>
<path d="M9.30644 5.84506H6.84764C6.54332 5.84506 6.25146 5.96595 6.03627 6.18114C5.82109 6.39633 5.7002 6.68818 5.7002 6.9925C5.7002 7.29682 5.82109 7.58868 6.03627 7.80387C6.25146 8.01905 6.54332 8.13994 6.84764 8.13994H8.48684C8.79116 8.13994 9.08301 8.26083 9.2982 8.47602C9.51339 8.69121 9.63428 8.98306 9.63428 9.28738C9.63428 9.5917 9.51339 9.88356 9.2982 10.0987C9.08301 10.3139 8.79116 10.4348 8.48684 10.4348H5.7002" stroke="#27AE60" stroke-linecap="round" stroke-linejoin="round"/>
</svg>
