<svg width="16" height="16" viewBox="0 0 16 16" fill="none" xmlns="http://www.w3.org/2000/svg">
<path d="M9.7999 4.20003C9.67775 4.32465 9.60933 4.49219 9.60933 4.66669C9.60933 4.8412 9.67775 5.00874 9.7999 5.13336L10.8666 6.20003C10.9912 6.32218 11.1587 6.3906 11.3332 6.3906C11.5077 6.3906 11.6753 6.32218 11.7999 6.20003L14.3132 3.68669C14.6485 4.42749 14.75 5.25285 14.6042 6.05279C14.4585 6.85273 14.0724 7.58926 13.4974 8.16421C12.9225 8.73917 12.1859 9.12525 11.386 9.271C10.5861 9.41675 9.7607 9.31525 9.0199 8.98003L4.41324 13.5867C4.14802 13.8519 3.78831 14.0009 3.41324 14.0009C3.03816 14.0009 2.67845 13.8519 2.41324 13.5867C2.14802 13.3215 1.99902 12.9618 1.99902 12.5867C1.99902 12.2116 2.14802 11.8519 2.41324 11.5867L7.0199 6.98003C6.68468 6.23923 6.58318 5.41387 6.72893 4.61393C6.87468 3.81399 7.26076 3.07746 7.83572 2.50251C8.41067 1.92755 9.1472 1.54147 9.94714 1.39572C10.7471 1.24997 11.5724 1.35147 12.3132 1.68669L9.80657 4.19336L9.7999 4.20003Z" stroke="#27AE60" stroke-linecap="round" stroke-linejoin="round"/>
</svg>
