<svg width="24" height="24" viewBox="0 0 24 24" fill="none" xmlns="http://www.w3.org/2000/svg">
<path d="M23 6V10H19" stroke="#828282" stroke-linecap="round" stroke-linejoin="round"/>
<path d="M1 18V14H5" stroke="#828282" stroke-linecap="round" stroke-linejoin="round"/>
<path d="M3.51 9.00008C4.01717 7.56686 4.87913 6.28548 6.01547 5.27549C7.1518 4.26551 8.52547 3.55984 10.0083 3.22433C11.4911 2.88883 13.0348 2.93442 14.4952 3.35685C15.9556 3.77928 17.2853 4.56479 18.36 5.64008L23 10.0001M1 14.0001L5.64 18.3601C6.71475 19.4354 8.04437 20.2209 9.50481 20.6433C10.9652 21.0657 12.5089 21.1113 13.9917 20.7758C15.4745 20.4403 16.8482 19.7346 17.9845 18.7247C19.1209 17.7147 19.9828 16.4333 20.49 15.0001" stroke="#828282" stroke-linecap="round" stroke-linejoin="round"/>
<path d="M11.5007 6.80078V17.6195" stroke="#828282" stroke-linecap="round" stroke-linejoin="round"/>
<path d="M13.9595 8.76758H10.2713C9.81485 8.76758 9.37707 8.94891 9.05429 9.27169C8.73151 9.59447 8.55017 10.0323 8.55017 10.4887C8.55017 10.9452 8.73151 11.383 9.05429 11.7058C9.37707 12.0286 9.81485 12.2099 10.2713 12.2099H12.7301C13.1866 12.2099 13.6244 12.3912 13.9472 12.714C14.27 13.0368 14.4513 13.4746 14.4513 13.9311C14.4513 14.3875 14.27 14.8253 13.9472 15.1481C13.6244 15.4709 13.1866 15.6522 12.7301 15.6522H8.55017" stroke="#828282" stroke-linecap="round" stroke-linejoin="round"/>
</svg>
