<svg width="16" height="16" viewBox="0 0 16 16" fill="none" xmlns="http://www.w3.org/2000/svg">
<path d="M10.6666 10.6667L7.99992 8L5.33325 10.6667" stroke="#27AE60" stroke-linecap="round" stroke-linejoin="round"/>
<path d="M8 8V14" stroke="#27AE60" stroke-linecap="round" stroke-linejoin="round"/>
<path d="M13.5933 12.26C14.2435 11.9055 14.7572 11.3446 15.0532 10.6658C15.3493 9.98692 15.4108 9.22883 15.2281 8.51114C15.0454 7.79344 14.629 7.15702 14.0444 6.70231C13.4599 6.2476 12.7406 6.0005 12 6.00001H11.16C10.9582 5.2195 10.5821 4.4949 10.0599 3.88067C9.5378 3.26644 8.8832 2.77858 8.14537 2.45375C7.40754 2.12892 6.60567 1.97558 5.80005 2.00526C4.99443 2.03495 4.20602 2.24688 3.49409 2.62512C2.78216 3.00336 2.16525 3.53808 1.68972 4.18906C1.2142 4.84005 0.892434 5.59037 0.748627 6.38361C0.60482 7.17684 0.64271 7.99236 0.859449 8.76885C1.07619 9.54534 1.46613 10.2626 1.99997 10.8667" stroke="#27AE60" stroke-linecap="round" stroke-linejoin="round"/>
<path d="M10.6666 10.6667L7.99992 8L5.33325 10.6667" stroke="#27AE60" stroke-linecap="round" stroke-linejoin="round"/>
</svg>
