<svg width="22" height="20" viewBox="0 0 22 20" fill="none" xmlns="http://www.w3.org/2000/svg">
<path d="M14.4375 10C13.554 10 12.6998 9.64141 12.0312 8.99063C11.3811 8.35586 10.9841 7.50938 10.914 6.60781C10.8393 5.64609 11.1619 4.76172 11.8224 4.11719C12.4828 3.47266 13.4062 3.125 14.4375 3.125C15.4614 3.125 16.3874 3.47891 17.0457 4.12187C17.7104 4.77109 18.0339 5.65391 17.9592 6.60742C17.8874 7.51016 17.4908 8.35625 16.842 8.99023C16.1751 9.64141 15.3213 10 14.4375 10ZM20.102 16.875H8.77331C8.59117 16.8759 8.41124 16.8388 8.24735 16.7665C8.08347 16.6943 7.94 16.5888 7.828 16.4582C7.70919 16.3166 7.62715 16.1525 7.58801 15.978C7.54887 15.8036 7.55364 15.6233 7.60198 15.4508C7.96378 14.1301 8.86011 13.0348 10.1939 12.2836C11.3776 11.6172 12.8846 11.25 14.4375 11.25C16.0209 11.25 17.4882 11.6016 18.6789 12.2676C20.0157 13.0148 20.9133 14.1164 21.2734 15.4531C21.3211 15.6258 21.3254 15.806 21.2858 15.9804C21.2462 16.1548 21.1638 16.3188 21.0448 16.4602C20.9329 16.5901 20.7897 16.6951 20.6263 16.767C20.4629 16.8389 20.2836 16.8758 20.102 16.875V16.875ZM6.31636 10.1562C4.80429 10.1562 3.47483 8.87813 3.35151 7.30742C3.2905 6.50273 3.56636 5.75859 4.12495 5.21289C4.67753 4.67266 5.45698 4.375 6.31636 4.375C7.17573 4.375 7.94917 4.67422 8.50476 5.21758C9.06765 5.76758 9.34265 6.51016 9.27819 7.3082C9.15487 8.87852 7.82585 10.1562 6.31636 10.1562ZM9.13769 11.3848C8.38187 11.0488 7.40089 10.8809 6.31679 10.8809C5.05093 10.8809 3.82159 11.1809 2.8548 11.7254C1.75866 12.3438 1.02132 13.2441 0.723545 14.3313C0.679968 14.4876 0.675847 14.6509 0.711488 14.8089C0.74713 14.9669 0.821613 15.1156 0.929365 15.2437C1.03161 15.3631 1.16259 15.4595 1.31225 15.5256C1.4619 15.5917 1.62623 15.6257 1.79261 15.625H6.56214C6.64264 15.625 6.72059 15.5993 6.78238 15.5524C6.84418 15.5055 6.88591 15.4404 6.9003 15.3684C6.90503 15.3437 6.91105 15.3191 6.91792 15.2949C7.2823 13.9645 8.13609 12.8402 9.39765 12.0207C9.44405 11.9903 9.48137 11.9498 9.50623 11.903C9.53109 11.8562 9.5427 11.8045 9.54001 11.7525C9.53732 11.7006 9.52042 11.6501 9.49083 11.6056C9.46125 11.5611 9.41991 11.524 9.37058 11.4977C9.30312 11.4617 9.22577 11.4238 9.13769 11.3848V11.3848Z" fill="#333333"/>
</svg>
